<svg id="Caminho_1" data-name="Caminho 1" xmlns="http://www.w3.org/2000/svg" width="33.932" height="25.352" viewBox="0 0 33.932 25.352">
  <path id="Caminho_1-2" data-name="Caminho 1" d="M30.01,60.371H3.921A3.823,3.823,0,0,1,0,56.662V41.623a3.823,3.823,0,0,1,3.921-3.708H9.245l.467-1.486a1.916,1.916,0,0,1,1.9-1.41H22.32a1.954,1.954,0,0,1,1.9,1.418l.013.051.425,1.428h5.349a3.823,3.823,0,0,1,3.921,3.708V56.663a3.823,3.823,0,0,1-3.922,3.708ZM3.921,39.152a2.549,2.549,0,0,0-2.614,2.472V56.663a2.549,2.549,0,0,0,2.614,2.472H30.01a2.549,2.549,0,0,0,2.614-2.472V41.624a2.549,2.549,0,0,0-2.614-2.472H23.672l-.716-2.413a.649.649,0,0,0-.636-.484H11.611a.642.642,0,0,0-.636.484l-.756,2.413ZM16.966,56.635a7.856,7.856,0,1,1,0-15.688,7.856,7.856,0,1,1,0,15.688Zm0-14.452a6.618,6.618,0,1,0,0,13.215,6.618,6.618,0,1,0,0-13.215Zm12.2-.736a1.142,1.142,0,1,0,1.205,1.14,1.175,1.175,0,0,0-1.205-1.14Z" transform="translate(0 -35.019)"/>
</svg>
