<svg xmlns="http://www.w3.org/2000/svg" width="26" height="22.428" viewBox="0 0 26 22.428">
  <g id="comment" transform="translate(0.5 -36.049)">
    <path id="Caminho_6" data-name="Caminho 6" d="M23.326,40.992a11.307,11.307,0,0,0-4.548-3.251A16.217,16.217,0,0,0,12.5,36.549a16.217,16.217,0,0,0-6.278,1.193,11.306,11.306,0,0,0-4.548,3.251A6.958,6.958,0,0,0,0,45.477,6.769,6.769,0,0,0,1.262,49.4a10.242,10.242,0,0,0,3.453,3.069,8.9,8.9,0,0,1-.363,1.06q-.209.5-.377.823a5.662,5.662,0,0,1-.454.711q-.286.391-.432.551l-.481.53q-.335.369-.432.481a.981.981,0,0,0-.112.126l-.1.118-.084.126c-.047.069-.067.114-.063.132a.371.371,0,0,1-.028.139.184.184,0,0,0,.007.168v.014a.711.711,0,0,0,.223.384.559.559,0,0,0,.377.146h.07a10.52,10.52,0,0,0,1.59-.307,15.246,15.246,0,0,0,6.417-3.376,19.074,19.074,0,0,0,2.023.112,16.213,16.213,0,0,0,6.278-1.193,11.307,11.307,0,0,0,4.548-3.25,6.845,6.845,0,0,0,0-8.97Zm-1.57,8.043a10.02,10.02,0,0,1-3.934,2.616,14.473,14.473,0,0,1-5.322.97,15.751,15.751,0,0,1-1.813-.112l-.8-.083-.6.53a13.755,13.755,0,0,1-3.836,2.386,10.009,10.009,0,0,0,.977-2.4L6.808,51.6l-1.214-.7a8.508,8.508,0,0,1-2.811-2.449,5.091,5.091,0,0,1-1-2.978A5.272,5.272,0,0,1,3.243,41.92,10.019,10.019,0,0,1,7.178,39.3a14.467,14.467,0,0,1,5.322-.97,14.466,14.466,0,0,1,5.322.97,10.021,10.021,0,0,1,3.934,2.616,5.07,5.07,0,0,1,0,7.115Z" transform="translate(0)" stroke="#fff" stroke-width="1"/>
  </g>
</svg>
