<svg xmlns="http://www.w3.org/2000/svg" width="25" height="23.244" viewBox="0 0 25 23.244">
  <g id="like" transform="translate(0 -1.826)">
    <path id="Caminho_7" data-name="Caminho 7" d="M24.959,8.757c-.365-4.017-3.208-6.931-6.766-6.931a6.725,6.725,0,0,0-5.762,3.32,6.481,6.481,0,0,0-5.624-3.32C3.25,1.826.406,4.74.042,8.757a7.147,7.147,0,0,0,.213,2.634,11.3,11.3,0,0,0,3.461,5.776l8.71,7.9,8.859-7.9a11.3,11.3,0,0,0,3.461-5.776A7.163,7.163,0,0,0,24.959,8.757ZM23.81,11.17a10.332,10.332,0,0,1-3.168,5.282l-8.21,7.325L4.362,16.454A10.339,10.339,0,0,1,1.191,11.17a6.244,6.244,0,0,1-.2-2.26L1,8.861c.313-3.519,2.755-6.073,5.81-6.073A5.636,5.636,0,0,1,11.986,6.4l.443,1.05.443-1.05a5.809,5.809,0,0,1,5.322-3.613c3.054,0,5.5,2.554,5.816,6.119A6.237,6.237,0,0,1,23.81,11.17Z"/>
  </g>
</svg>
