<svg xmlns="http://www.w3.org/2000/svg" width="25.606" height="22.143" viewBox="0 0 25.606 22.143">
  <g id="send" transform="translate(0.301 -33.676)">
    <path id="Caminho_8" data-name="Caminho 8" d="M0,44.755a1.211,1.211,0,0,0,.867,1.1l9.158,2.769.337,6.313a.626.626,0,0,0,.423.551.574.574,0,0,0,.2.036.62.62,0,0,0,.469-.209L14.7,51.725,19.287,54.9a1.2,1.2,0,0,0,.693.219,1.231,1.231,0,0,0,1.2-.979L24.988,34.73a.623.623,0,0,0-.846-.7L.736,43.556A1.231,1.231,0,0,0,0,44.755Zm11.524,8.612-.209-3.982,2.346,1.622Zm8.434.484-8.352-5.782L23.32,36.739Zm2.075-17.612-11.58,11.2L1.307,44.678Z" transform="translate(0)" stroke="#fff" stroke-width="0.6"/>
    <path id="Caminho_9" data-name="Caminho 9" d="M31.779,35.2" transform="translate(-8)" fill="none" stroke="#fff" stroke-width="0.6"/>
  </g>
</svg>
